<svg xmlns="http://www.w3.org/2000/svg">
  <defs>
    <symbol id="notification">

        <svg focusable="false" viewBox="0 0 24 24" >
            <path d="M10 20h4c0 1.1-.9 2-2 2s-2-.9-2-2zm10-2.65V19H4v-1.65l2-1.88v-5.15C6 7.4 7.56 5.1 10 4.34v-.38c0-1.42 1.49-2.5 2.99-1.76.65.32 1.01 1.03 1.01 1.76v.39c2.44.75 4 3.06 4 5.98v5.15l2 1.87zm-1 .42-2-1.88v-5.47c0-2.47-1.19-4.36-3.13-5.1-1.26-.53-2.64-.5-3.84.03C8.15 6.11 7 7.99 7 10.42v5.47l-2 1.88V18h14v-.23z">
            </path>
        </svg>
    </symbol>   


    <symbol id="code">
      <svg  viewBox="0 0 24 24" fill="none">
         <path d="M15.5 9L15.6716 9.17157C17.0049 10.5049 17.6716 11.1716 17.6716 12C17.6716 12.8284 17.0049 13.4951 15.6716 14.8284L15.5 15"  stroke-width="1.5" stroke-linecap="round"/> <path d="M13.2939 7.17041L11.9998 12L10.7058 16.8297" stroke-width="1.5" stroke-linecap="round"/> <path d="M8.50019 9L8.32861 9.17157C6.99528 10.5049 6.32861 11.1716 6.32861 12C6.32861 12.8284 6.99528 13.4951 8.32861 14.8284L8.50019 15"  stroke-width="1.5" stroke-linecap="round"/> <path d="M2 12C2 7.28595 2 4.92893 3.46447 3.46447C4.92893 2 7.28595 2 12 2C16.714 2 19.0711 2 20.5355 3.46447C22 4.92893 22 7.28595 22 12C22 16.714 22 19.0711 20.5355 20.5355C19.0711 22 16.714 22 12 22C7.28595 22 4.92893 22 3.46447 20.5355C2 19.0711 2 16.714 2 12Z"  stroke-width="1.5"/> </g>
      </svg>
    </symbol>






   


    

  </defs>
</svg>