<svg xmlns="http://www.w3.org/2000/svg">
  <defs>
    <symbol id="notification">
        <svg focusable="false" viewBox="0 0 24 24" >
            <path d="M10 20h4c0 1.1-.9 2-2 2s-2-.9-2-2zm10-2.65V19H4v-1.65l2-1.88v-5.15C6 7.4 7.56 5.1 10 4.34v-.38c0-1.42 1.49-2.5 2.99-1.76.65.32 1.01 1.03 1.01 1.76v.39c2.44.75 4 3.06 4 5.98v5.15l2 1.87zm-1 .42-2-1.88v-5.47c0-2.47-1.19-4.36-3.13-5.1-1.26-.53-2.64-.5-3.84.03C8.15 6.11 7 7.99 7 10.42v5.47l-2 1.88V18h14v-.23z">
            </path>
        </svg>
    </symbol>   


    <symbol id="code">
      <svg  viewBox="0 0 24 24" fill="none">
         <path d="M15.5 9L15.6716 9.17157C17.0049 10.5049 17.6716 11.1716 17.6716 12C17.6716 12.8284 17.0049 13.4951 15.6716 14.8284L15.5 15"  stroke-width="1.5" stroke-linecap="round"/> <path d="M13.2939 7.17041L11.9998 12L10.7058 16.8297" stroke-width="1.5" stroke-linecap="round"/> <path d="M8.50019 9L8.32861 9.17157C6.99528 10.5049 6.32861 11.1716 6.32861 12C6.32861 12.8284 6.99528 13.4951 8.32861 14.8284L8.50019 15"  stroke-width="1.5" stroke-linecap="round"/> <path d="M2 12C2 7.28595 2 4.92893 3.46447 3.46447C4.92893 2 7.28595 2 12 2C16.714 2 19.0711 2 20.5355 3.46447C22 4.92893 22 7.28595 22 12C22 16.714 22 19.0711 20.5355 20.5355C19.0711 22 16.714 22 12 22C7.28595 22 4.92893 22 3.46447 20.5355C2 19.0711 2 16.714 2 12Z"  stroke-width="1.5"/> </g>
      </svg>
    </symbol>

    <symbol id="heart">
      <svg viewBox="0 0 24 24" fill="none" xmlns="http://www.w3.org/2000/svg">
        <path fill-rule="evenodd" clip-rule="evenodd" d="M12 6.00019C10.2006 3.90317 7.19377 3.2551 4.93923 5.17534C2.68468 7.09558 2.36727 10.3061 4.13778 12.5772C5.60984 14.4654 10.0648 18.4479 11.5249 19.7369C11.6882 19.8811 11.7699 19.9532 11.8652 19.9815C11.9483 20.0062 12.0393 20.0062 12.1225 19.9815C12.2178 19.9532 12.2994 19.8811 12.4628 19.7369C13.9229 18.4479 18.3778 14.4654 19.8499 12.5772C21.6204 10.3061 21.3417 7.07538 19.0484 5.17534C16.7551 3.2753 13.7994 3.90317 12 6.00019Z" stroke="#000000" stroke-width="2" stroke-linecap="round" stroke-linejoin="round"/>
      </svg>
    </symbol>

    <symbol id="bookmark">
      <svg width="800px" height="800px" viewBox="0 0 24 24" fill="none" xmlns="http://www.w3.org/2000/svg">
      <path d="M5 6.2C5 5.07989 5 4.51984 5.21799 4.09202C5.40973 3.71569 5.71569 3.40973 6.09202 3.21799C6.51984 3 7.07989 3 8.2 3H15.8C16.9201 3 17.4802 3 17.908 3.21799C18.2843 3.40973 18.5903 3.71569 18.782 4.09202C19 4.51984 19 5.07989 19 6.2V21L12 16L5 21V6.2Z" stroke="#000000" stroke-width="2" stroke-linejoin="round"/>
      </svg>
    </symbol>
   
  </defs>
</svg>